# xmcd CD database file
#
# Track frame offsets:
#	150
#	23967
#	59025
#
# Disc length: 1102 seconds
#
# Revision: 2
# Processed by: cddbd v1.5.2PL0 Copyright (c) Steve Scherf et al.
# Submitted via: CDex 1.70beta2
#
DISCID=25044c03
DTITLE=globe - Sa Yo Na Ra
DYEAR=1998
DGENRE=JPop
TTITLE0=Sa Yo Na Ra (straight run)
TTITLE1=Sa Yo Na Ra (BUZZ mix)
TTITLE2=Sa Yo Na Ra (TV mix)
EXTD=YEAR: 1998
EXTT0=
EXTT1=
EXTT2=
PLAYORDER=
